<svg width="128" height="128" viewBox="0 0 128 128" fill="none" xmlns="http://www.w3.org/2000/svg">
<path d="M0 0H9.84615V9.84615H0V0Z" fill="#BABABA"/>
<path d="M19.6923 9.84615H9.84615V19.6923H0V29.5385H9.84615V19.6923H19.6923V9.84615Z" fill="#BABABA"/>
<path d="M29.5385 9.84615H19.6923V0H29.5385V9.84615Z" fill="#BABABA"/>
<path d="M39.3846 9.84615V19.6923H29.5385L29.5385 9.84615H39.3846Z" fill="#BABABA"/>
<path d="M49.2308 9.84615H39.3846V0H49.2308V9.84615Z" fill="#BABABA"/>
<path d="M59.0769 9.84615V19.6923H49.2308V9.84615H59.0769Z" fill="#BABABA"/>
<path d="M68.9231 9.84615H59.0769V0H68.9231V9.84615Z" fill="#BABABA"/>
<path d="M78.7692 9.84615V19.6923H68.9231V9.84615H78.7692Z" fill="#BABABA"/>
<path d="M88.6154 9.84615H78.7692V0H88.6154V9.84615Z" fill="#BABABA"/>
<path d="M98.4615 9.84615V19.6923H88.6154V9.84615H98.4615Z" fill="#BABABA"/>
<path d="M108.308 9.84615H98.4615V0H108.308V9.84615Z" fill="#BABABA"/>
<path d="M118.154 9.84615V19.6923H108.308V9.84615H118.154Z" fill="#BABABA"/>
<path d="M118.154 9.84615V0H128V9.84615H118.154Z" fill="#BABABA"/>
<path d="M78.7692 19.6923H88.6154V29.5385H78.7692V19.6923Z" fill="#BABABA"/>
<path d="M68.9231 29.5385H78.7692V39.3846H88.6154V29.5385H98.4615V39.3846H108.308V29.5385H118.154V39.3846H128V49.2307H118.154V39.3846H108.308V49.2307H98.4615V39.3846H88.6154V49.2307H78.7692V39.3846L68.9231 39.3847V49.2307H59.0769V39.3847H49.2308V49.2307H39.3846V39.3847H29.5385L29.5385 49.2307H19.6923V39.3847H9.84615V49.2307H19.6923V59.0769H9.84615V49.2307L0 49.2308V39.3846L9.84615 39.3847V29.5385L19.6923 29.5385V39.3847H29.5385L29.5385 29.5385H39.3846V39.3847H49.2308V29.5385H59.0769V39.3847H68.9231V29.5385Z" fill="#BABABA"/>
<path d="M68.9231 29.5385V19.6923H59.0769V29.5385H68.9231Z" fill="#BABABA"/>
<path d="M49.2308 29.5385V19.6923H39.3846V29.5385H49.2308Z" fill="#BABABA"/>
<path d="M29.5385 29.5385L29.5385 19.6923H19.6923V29.5385H29.5385Z" fill="#BABABA"/>
<path d="M9.84615 59.0769V68.923H0V59.0769H9.84615Z" fill="#BABABA"/>
<path d="M29.5385 49.2307H39.3846V59.0769H29.5385L29.5385 49.2307Z" fill="#BABABA"/>
<path d="M49.2308 49.2307H59.0769V59.0769H49.2308V49.2307Z" fill="#BABABA"/>
<path d="M68.9231 49.2307H78.7692V59.0769H68.9231V49.2307Z" fill="#BABABA"/>
<path d="M88.6154 49.2307H98.4615V59.0769H88.6154V49.2307Z" fill="#BABABA"/>
<path d="M108.308 49.2307H118.154V59.0769H108.308V49.2307Z" fill="#BABABA"/>
<path d="M118.154 29.5385V19.6923L128 19.6924V29.5385H118.154Z" fill="#BABABA"/>
<path d="M108.308 29.5385H98.4615V19.6923H108.308V29.5385Z" fill="#BABABA"/>
<path d="M78.7692 59.0769H88.6154V68.9231H78.7692V59.0769Z" fill="#BABABA"/>
<path fill-rule="evenodd" clip-rule="evenodd" d="M78.7692 98.4615V88.6153H68.9231V78.7692H59.0769V88.6153H49.2308V78.7692H39.3846V88.6153H29.5385L29.5385 78.7692H19.6923V88.6153H29.5385L29.5385 98.4615H19.6923V108.308H29.5385L29.5385 98.4615H39.3846V108.308H49.2308V98.4615H59.0769V108.308H68.9231V98.4615H78.7692ZM68.9231 98.4615V88.6153H59.0769V98.4615H68.9231ZM49.2308 98.4615V88.6153H39.3846V98.4615H49.2308Z" fill="#BABABA"/>
<path d="M88.6154 98.4615V88.6153H98.4615V98.4615H88.6154Z" fill="#BABABA"/>
<path d="M88.6154 98.4615H78.7692V108.308H88.6154V98.4615Z" fill="#BABABA"/>
<path d="M98.4615 88.6153V78.7692H108.308V88.6153H98.4615Z" fill="#BABABA"/>
<path fill-rule="evenodd" clip-rule="evenodd" d="M78.7692 78.7692V68.9231H68.9231V59.0769H59.0769V68.9231H49.2308V59.0769H39.3846V68.9231H29.5385L29.5385 59.0769H19.6923V68.9231L9.84615 68.923V78.7692L0 78.7692V88.6154H9.84615V98.4615H0V108.308H9.84615V118.154H0V128H9.84615V118.154H19.6923V128H29.5385V118.154H39.3846V128H49.2308V118.154H59.0769V128H68.9231V118.154H78.7692V128H88.6154V118.154H98.4615V128H108.308V118.154H118.154V128H128V118.154H118.154L118.154 108.308H128V98.4615H118.154V108.308L108.308 108.308V98.4615L118.154 98.4615L118.154 88.6153H128V78.7692L118.154 78.7692V68.9231H128V59.0769L118.154 59.0769V68.9231H108.308V59.0769H98.4615V68.9231H88.6154V78.7692H78.7692ZM78.7692 88.6153V78.7692H68.9231V68.9231H59.0769V78.7692H49.2308V68.9231H39.3846V78.7692H29.5385L29.5385 68.9231H19.6923V78.7692H9.84615V88.6154L19.6923 88.6153V98.4615H9.84615V108.308L19.6923 108.308V118.154H29.5385V108.308H39.3846V118.154H49.2308V108.308H59.0769V118.154H68.9231V108.308H78.7692V118.154H88.6154V108.308H98.4615V118.154H108.308V108.308H98.4615V98.4615H108.308V88.6153H118.154V78.7692H108.308V68.9231H98.4615V78.7692H88.6154V88.6153H78.7692Z" fill="#BABABA"/>
</svg>
